HIERARCHY
ROOT SpineBase
{
  OFFSET 0.000000 0.000000 0.000000
  CHANNELS 6 Xposition Yposition Zposition Zrotation Xrotation Yrotation
  JOINT SpineMid
  {
    OFFSET 0.000000 28.538030 0.000000
    CHANNELS 3 Zrotation Xrotation Yrotation
    JOINT SpineShoulder
    {
      OFFSET -0.049979 21.241666 -0.742692
      CHANNELS 3 Zrotation Xrotation Yrotation
      JOINT Neck
      {
        OFFSET -0.014914 7.052703 -0.557192
        CHANNELS 3 Zrotation Xrotation Yrotation
        JOINT Head
        {
          OFFSET -0.069471 14.499402 -0.104016
          CHANNELS 3 Zrotation Xrotation Yrotation
          End Site
          {
            OFFSET 0 0 0
          }
        }
      }
      JOINT ShoulderLeft
      {
        OFFSET -16.381201 -3.754872 -2.028489
        CHANNELS 3 Zrotation Xrotation Yrotation
        JOINT ElbowLeft
        {
          OFFSET -4.599892 -25.016105 1.220983
          CHANNELS 3 Zrotation Xrotation Yrotation
          JOINT WristLeft
          {
            OFFSET 0.696461 -19.218376 -3.287136
            CHANNELS 3 Zrotation Xrotation Yrotation
            JOINT HandLeft
            {
              OFFSET 0.859634 -5.911472 -0.481311
              CHANNELS 3 Zrotation Xrotation Yrotation
              JOINT HandTipLeft
              {
                OFFSET -0.775611 -5.395696 -1.816315
                CHANNELS 3 Zrotation Xrotation Yrotation
                End Site
                {
                  OFFSET 0 0 0
                }
              }
              JOINT ThumbLeft
              {
                OFFSET -2.371893 -0.946117 -1.423176
                CHANNELS 3 Zrotation Xrotation Yrotation
                End Site
                {
                  OFFSET 0 0 0
                }
              }
            }
          }
        }
      }
      JOINT ShoulderRight
      {
        OFFSET 15.574112 -2.850407 -1.615902
        CHANNELS 3 Zrotation Xrotation Yrotation
        JOINT ElbowRight
        {
          OFFSET 5.229520 -23.764816 4.813211
          CHANNELS 3 Zrotation Xrotation Yrotation
          JOINT WristRight
          {
            OFFSET -6.796008 -12.391455 -15.440138
            CHANNELS 3 Zrotation Xrotation Yrotation
            JOINT HandRight
            {
              OFFSET -2.472563 -1.485299 -2.390557
              CHANNELS 3 Zrotation Xrotation Yrotation
              JOINT HandTipRight
              {
                OFFSET -1.765176 0.831558 -4.155275
                CHANNELS 3 Zrotation Xrotation Yrotation
                End Site
                {
                  OFFSET 0 0 0
                }
              }
              JOINT ThumbRight
              {
                OFFSET -1.255139 -4.108599 2.299423
                CHANNELS 3 Zrotation Xrotation Yrotation
                End Site
                {
                  OFFSET 0 0 0
                }
              }
            }
          }
        }
      }
    }
  }
  JOINT HipLeft
  {
    OFFSET -6.475953 0.867891 -3.228698
    CHANNELS 3 Zrotation Xrotation Yrotation
    JOINT KneeLeft
    {
      OFFSET -2.758510 -30.925955 -0.667444
      CHANNELS 3 Zrotation Xrotation Yrotation
      JOINT AnkleLeft
      {
        OFFSET 2.983589 -32.897149 9.036721
        CHANNELS 3 Zrotation Xrotation Yrotation
        JOINT FootLeft
        {
          OFFSET 0.156724 -7.438082 -7.137869
          CHANNELS 3 Zrotation Xrotation Yrotation
          End Site
          {
            OFFSET 0 0 0
          }
        }
      }
    }
  }
  JOINT HipRight
  {
    OFFSET 6.705179 0.937720 -3.435517
    CHANNELS 3 Zrotation Xrotation Yrotation
    JOINT KneeRight
    {
      OFFSET 5.341305 -31.600510 -4.718670
      CHANNELS 3 Zrotation Xrotation Yrotation
      JOINT AnkleRight
      {
        OFFSET 0.886509 -36.161085 9.485693
        CHANNELS 3 Zrotation Xrotation Yrotation
        JOINT FootRight
        {
          OFFSET -0.232554 -6.646196 -5.155994
          CHANNELS 3 Zrotation Xrotation Yrotation
          End Site
          {
            OFFSET 0 0 0
          }
        }
      }
    }
  }
}
MOTION
Frames: 9
Frame Time: 0.033333
-13.651060 75.191573 350.034669 1.291632 -0.268174 -6.282169 0.425367 0.021573 6.343733 0.084976 0.075558 0.081127 -4.108008 0.220332 -0.146055 0.000000 0.000000 0.000000 -0.362921 0.818557 -0.191764 3.632182 2.188418 -0.799599 1.515252 5.254249 1.119577 -5.215185 0.993528 -2.712028 0.000000 0.000000 0.000000 0.000000 0.000000 0.000000 -0.956218 -9.393626 -1.980559 19.431030 -1.396741 -24.121135 17.994588 -10.535661 0.314319 4.672728 -25.269540 33.402636 0.000000 0.000000 0.000000 0.000000 0.000000 0.000000 1.975519 -3.275544 6.649364 -4.904772 1.244715 -0.868548 9.328325 35.451863 -6.388049 0.000000 0.000000 0.000000 -2.363384 -9.854146 4.832151 3.037542 11.695507 1.335285 4.679851 6.261008 -5.116062 0.000000 0.000000 0.000000
-13.761696 75.122728 349.993200 1.816081 -0.272601 -5.766813 0.412959 0.077847 5.846867 0.067766 0.094559 0.101976 -3.811701 -0.286226 -0.193334 0.000000 0.000000 0.000000 -0.427088 0.851849 -0.234019 3.993540 3.030304 -0.953475 -0.144378 2.307903 1.151219 0.775904 6.241506 -4.576353 0.000000 0.000000 0.000000 0.000000 0.000000 0.000000 2.465200 -7.847307 -0.634929 16.055850 -3.754343 -24.961096 17.312800 -9.701759 -6.884564 3.707203 -25.390696 37.043769 0.000000 0.000000 0.000000 0.000000 0.000000 0.000000 1.342337 -3.315744 6.132983 -4.562480 1.152064 -0.816823 8.358080 35.654757 -5.715552 0.000000 0.000000 0.000000 -2.481040 -9.377924 4.353377 2.190644 10.745845 1.362071 5.302272 3.908056 -5.163434 0.000000 0.000000 0.000000
-13.978504 75.045741 349.965996 2.276183 -0.196476 -5.016284 0.341441 0.126430 5.108935 0.034299 0.111132 0.116072 -3.231812 -0.807852 -0.222315 0.000000 0.000000 0.000000 -0.292483 0.802082 -0.260894 3.809762 3.547221 -1.021477 -1.533014 -1.114404 0.974732 7.855803 10.770224 -7.129175 0.000000 0.000000 0.000000 0.000000 0.000000 0.000000 6.647681 -4.356982 1.053616 11.780308 -7.433481 -25.851837 17.844985 -9.860731 -13.202855 2.366239 -27.150094 38.496640 0.000000 0.000000 0.000000 0.000000 0.000000 0.000000 0.879627 -3.372659 5.376916 -4.333284 1.071904 -0.750329 7.159910 35.842914 -4.817212 0.000000 0.000000 0.000000 -2.485868 -8.914538 3.632549 1.393503 9.755915 1.398610 5.402295 1.239916 -4.907725 0.000000 0.000000 0.000000
-14.285546 74.964366 349.978318 2.626966 -0.059350 -3.962935 0.220901 0.144624 4.061024 -0.012556 0.112730 0.122290 -2.437109 -1.094502 -0.226386 0.000000 0.000000 0.000000 0.120017 0.824338 -0.287311 3.245548 3.957259 -1.018731 -3.455814 -4.001955 0.743780 13.772536 15.326272 -9.707350 0.000000 0.000000 0.000000 0.000000 0.000000 0.000000 11.144900 0.685371 2.680852 7.272246 -11.596011 -27.739632 14.491972 -7.047415 -22.511597 7.147472 -29.310169 45.003145 0.000000 0.000000 0.000000 0.000000 0.000000 0.000000 0.578369 -3.356092 4.303201 -4.068862 0.944234 -0.641721 5.659660 35.979439 -3.740810 0.000000 0.000000 0.000000 -2.373301 -8.443770 2.604961 0.126985 8.324237 1.366123 7.070302 -1.672126 -5.399005 0.000000 0.000000 0.000000
-14.639182 74.887982 350.007711 2.900374 0.153771 -2.758400 0.098037 0.184114 2.855910 -0.048430 0.125019 0.125491 -1.587359 -1.432018 -0.218652 0.000000 0.000000 0.000000 0.663609 0.834159 -0.320637 1.957275 3.785310 -0.862924 -4.598544 -5.722391 0.442946 18.497492 18.127184 -11.825863 0.000000 0.000000 0.000000 0.000000 0.000000 0.000000 15.564138 6.528757 3.994038 2.664879 -16.610632 -30.041655 13.008925 -6.425496 -21.002485 -2.140488 -31.145937 33.252732 0.000000 0.000000 0.000000 0.000000 0.000000 0.000000 0.360026 -3.365850 3.072766 -3.771177 0.817454 -0.514793 3.953145 36.083540 -2.510292 0.000000 0.000000 0.000000 -2.330864 -8.105813 1.422057 -0.368748 7.824085 1.391292 7.514477 2.631528 -6.004125 0.000000 0.000000 0.000000
-15.009309 74.830654 350.072210 3.073249 0.426551 -1.507865 -0.025343 0.221041 1.598786 -0.085884 0.132065 0.124023 -0.661536 -1.794537 -0.192812 0.000000 0.000000 0.000000 1.307636 0.823147 -0.346416 0.138200 3.054937 -0.608259 -4.674528 -6.378642 0.154069 20.962002 20.263017 -13.070551 0.000000 0.000000 0.000000 0.000000 0.000000 0.000000 19.560027 13.436502 4.889609 -2.212221 -22.748550 -32.115059 11.367623 -5.010909 -23.536677 -9.638829 -31.569281 25.149761 0.000000 0.000000 0.000000 0.000000 0.000000 0.000000 0.296081 -3.389611 1.792093 -3.583686 0.692067 -0.391048 2.300346 36.122377 -1.276082 0.000000 0.000000 0.000000 -2.339680 -7.906384 0.190253 0.185478 7.211552 1.502721 5.459415 4.269594 -5.384268 0.000000 0.000000 0.000000
-15.362052 74.802830 350.167966 3.113948 0.735840 -0.291963 -0.135616 0.246746 0.371200 -0.119883 0.131951 0.117606 0.295728 -2.028612 -0.151358 0.000000 0.000000 0.000000 1.887180 0.867214 -0.382015 -1.989452 1.920143 -0.272295 -3.327622 -6.821585 -0.194569 16.881823 21.661355 -10.965953 0.000000 0.000000 0.000000 0.000000 0.000000 0.000000 23.049002 19.526420 5.328014 -7.085336 -28.214548 -33.989245 10.566032 -4.160991 -24.874814 -17.491555 -30.005364 17.099599 0.000000 0.000000 0.000000 0.000000 0.000000 0.000000 0.445514 -3.444897 0.548068 -3.622273 0.510393 -0.302650 0.714239 36.177795 0.054707 0.000000 0.000000 0.000000 -2.480637 -7.941807 -1.018131 0.539305 6.897198 1.535230 2.428373 0.918086 -3.256267 0.000000 0.000000 0.000000
-15.661232 74.493837 350.216941 3.103672 1.140978 0.486999 -0.217820 0.250639 -0.422222 -0.082742 0.086820 0.117357 0.854672 -2.746324 -0.105726 0.000000 0.000000 0.000000 2.241414 0.802878 -0.407942 -3.722151 0.279921 -0.032447 -2.645729 -5.462641 -0.303471 13.687560 18.571147 -8.209977 0.000000 0.000000 0.000000 0.000000 0.000000 0.000000 26.064837 25.511769 5.432665 -12.276770 -38.007855 -34.866106 10.399016 -3.067587 -24.882725 -27.609180 -26.823625 5.947534 0.000000 0.000000 0.000000 0.000000 0.000000 0.000000 0.636303 -3.834578 -0.226958 -3.542317 0.274752 -0.233357 -0.731402 36.488177 1.159856 0.000000 0.000000 0.000000 -2.592485 -8.075506 -1.781520 0.943671 6.552769 1.548083 -0.346762 1.500536 -1.486665 0.000000 0.000000 0.000000
-15.890691 74.607326 350.369844 3.105466 1.394966 1.368007 -0.194404 0.300470 -1.310223 -0.108136 0.124361 0.114769 1.177759 -3.447697 -0.065890 0.000000 0.000000 0.000000 2.409834 0.604001 -0.409033 -4.849381 -0.712626 0.096009 -1.779689 -4.874664 -0.433440 11.066041 17.651750 -6.584527 0.000000 0.000000 0.000000 0.000000 0.000000 0.000000 28.735802 28.676829 5.374915 -18.941172 -35.321197 -35.981860 11.982512 -4.541335 -24.300142 -29.294094 -23.303573 0.478994 0.000000 0.000000 0.000000 0.000000 0.000000 0.000000 0.837041 -3.726376 -1.147038 -3.907987 -0.029832 -0.220006 -1.752594 36.473026 2.297982 0.000000 0.000000 0.000000 -2.781087 -7.873996 -2.607621 1.388225 6.054197 1.525323 -3.395027 5.928847 0.448506 0.000000 0.000000 0.000000
